<svg id="instagram" xmlns="http://www.w3.org/2000/svg" width="42" height="42" viewBox="0 0 42 42">
  <path id="Path_1" data-name="Path 1" d="M29.488,0H12.512A12.526,12.526,0,0,0,0,12.512V29.488A12.526,12.526,0,0,0,12.512,42H29.488A12.526,12.526,0,0,0,42,29.488V12.512A12.526,12.526,0,0,0,29.488,0Zm8.287,29.488a8.287,8.287,0,0,1-8.287,8.287H12.512a8.287,8.287,0,0,1-8.287-8.287V12.512a8.287,8.287,0,0,1,8.287-8.287H29.488a8.287,8.287,0,0,1,8.287,8.287V29.488Z" fill="#eee8aa"/>
  <path id="Path_2" data-name="Path 2" d="M143.863,133a10.863,10.863,0,1,0,10.863,10.863A10.875,10.875,0,0,0,143.863,133Zm0,17.5a6.637,6.637,0,1,1,6.637-6.637A6.637,6.637,0,0,1,143.863,150.5Z" transform="translate(-122.863 -122.863)" fill="#eee8aa"/>
  <circle id="Ellipse_1" data-name="Ellipse 1" cx="2.603" cy="2.603" r="2.603" transform="translate(29.281 7.616)" fill="#eee8aa"/>
</svg>
