<svg xmlns="http://www.w3.org/2000/svg" width="42" height="42" viewBox="0 0 42 42">
  <g id="telegram" transform="translate(-0.155)">
    <rect id="Rectangle_1" data-name="Rectangle 1" width="42" height="42" rx="21" transform="translate(0.155)" fill="#eee8aa"/>
    <path id="Path_3" data-name="Path 3" d="M5.947,15.127,26.194,7.32c.94-.339,1.761.229,1.456,1.65l0,0L24.2,25.21c-.255,1.152-.94,1.431-1.9.889l-5.25-3.869-2.532,2.439a1.324,1.324,0,0,1-1.059.516l.373-5.343,9.73-8.79c.424-.373-.094-.583-.653-.212L10.892,18.411,5.709,16.794c-1.125-.357-1.15-1.125.238-1.668Z" transform="translate(3.663 5.418)" fill="#2a2a2a"/>
  </g>
</svg>
