<svg xmlns="http://www.w3.org/2000/svg" width="42" height="34.936" viewBox="0 0 42 34.936">
  <path id="twitter" d="M41.332,38.555a16.631,16.631,0,0,1-2.9.977,9.029,9.029,0,0,0,2.383-3.8h0a.473.473,0,0,0-.693-.551h0A16.71,16.71,0,0,1,35.7,37.014a1.128,1.128,0,0,1-.277.034,1.174,1.174,0,0,1-.775-.3,9.055,9.055,0,0,0-5.991-2.261,9.681,9.681,0,0,0-2.869.443,8.772,8.772,0,0,0-5.912,6.321,9.659,9.659,0,0,0-.215,3.334.324.324,0,0,1-.082.254.336.336,0,0,1-.25.113l-.032,0A23.743,23.743,0,0,1,2.979,36.236h0A.473.473,0,0,0,2.2,36.3h0A9.065,9.065,0,0,0,3.676,47.3a8.114,8.114,0,0,1-2.065-.8h0a.473.473,0,0,0-.7.408h0A9.066,9.066,0,0,0,6.2,55.265l-.193,0a8.148,8.148,0,0,1-1.526-.146h0a.473.473,0,0,0-.54.609h0A9.075,9.075,0,0,0,11.106,61.9a16.709,16.709,0,0,1-9.358,2.842H.7a.693.693,0,0,0-.678.523.717.717,0,0,0,.343.793,24.853,24.853,0,0,0,12.488,3.367,25.193,25.193,0,0,0,10.672-2.264,23.567,23.567,0,0,0,7.809-5.851A25.653,25.653,0,0,0,36.116,53.3a25.3,25.3,0,0,0,1.625-8.764V44.4a1.541,1.541,0,0,1,.577-1.2,17.9,17.9,0,0,0,3.6-3.952h0a.473.473,0,0,0-.586-.7Z" transform="translate(0 -34.491)" fill="#eee8aa"/>
</svg>
