<svg xmlns="http://www.w3.org/2000/svg" width="212.456" height="350" viewBox="0 0 212.456 350" class="animate-svg"><defs><style>.animate-svg path{-webkit-animation:draw ease-in-out forwards;animation:draw ease-in-out forwards;stroke:#eee8aa}.animate-svg{-webkit-animation:fillopacity 3 ease-in-out forwards;animation:fillopacity 2s ease-in-out forwards}@-webkit-keyframes draw{100%{stroke-dashoffset:0}}@keyframes draw{100%{stroke-dashoffset:0}}@-webkit-keyframes fillopacity{0%,70%{fill-opacity:0;stroke-width:4%}100%{fill-opacity:1;stroke-width:0}}@keyframes fillopacity{0%,70%{fill-opacity:0;stroke-width:4%}100%{fill-opacity:1;stroke-width:0}}</style></defs>
  <g id="costa-rica-colon-currency-symbol" transform="translate(-16.572 -0.001)">
    <path id="Path_8" data-name="Path 8" d="M222.84,204.265a19.425,19.425,0,0,0-14.788-6.711q-10.085,0-14.626,6.624a60.246,60.246,0,0,0-7.645,17.149q-7.315,22.318-21.7,33.846-13.061,10.459-31.426,11.393l43.3-164.324a106.406,106.406,0,0,1,8.209,14.373q5.684,11.978,10.322,16.879t13.9,4.9q8.286,0,14.144-7.076a24.932,24.932,0,0,0,5.848-16.336q0-16.871-12.024-35.842-9.942-15.67-27.143-27.172L198.423,17a10.7,10.7,0,0,0-20.7-5.454l-7.911,30.019a99.293,99.293,0,0,0-20.15-5.557l5.947-22.578a10.7,10.7,0,1,0-20.7-5.454l-6.989,26.475A107.308,107.308,0,0,0,85.5,43.834a104.766,104.766,0,0,0-36.573,27.5Q33.317,89.39,24.947,114.792T16.572,172.32A200.917,200.917,0,0,0,19.9,209.707a157.927,157.927,0,0,0,10,33.116A134.836,134.836,0,0,0,45.994,270.87a104.593,104.593,0,0,0,15.352,16.224L49.239,333.013a10.705,10.705,0,1,0,20.706,5.445l10.309-39.134a94.034,94.034,0,0,0,16.933,6.2c.938.245,1.93.419,2.889.635l-8.014,30.418a10.7,10.7,0,0,0,7.624,13.074,10.53,10.53,0,0,0,2.735.353,10.71,10.71,0,0,0,10.347-7.981l8.649-32.833c3.279.2,6.624.324,10.077.324q24.865,0,43.562-8.894a90.153,90.153,0,0,0,30.721-23.138q12.021-14.25,17.639-29.036t5.611-27.5A23.753,23.753,0,0,0,222.84,204.265Zm-148.653,22.4q-7.8-20.588-7.8-51.626,0-46.449,17.635-71.681c8.732-12.484,19.2-20.818,32.136-24.288l-40.1,152.181C75.416,229.773,74.789,228.254,74.187,226.661ZM95.4,256.539c-1.116-.789-2.179-1.631-3.212-2.494L138.642,77.759a48.358,48.358,0,0,1,19.818,6.848l-47.326,179.6A53.446,53.446,0,0,1,95.4,256.539Z" transform="translate(0 0)" fill="#eee8aa" style="stroke-dasharray: 2148.86; stroke-dashoffset: 2148.86; animation-delay: 0s; animation-duration: 1.47s;"></path>
  </g>
</svg>