<svg xmlns="http://www.w3.org/2000/svg" width="324.337" height="350" viewBox="0 0 324.337 350" class="animate-svg"><defs><style>.animate-svg path{-webkit-animation:draw ease-in-out forwards;animation:draw ease-in-out forwards;stroke:#eee8aa}.animate-svg{-webkit-animation:fillopacity 3 ease-in-out forwards;animation:fillopacity 2s ease-in-out forwards}@-webkit-keyframes draw{100%{stroke-dashoffset:0}}@keyframes draw{100%{stroke-dashoffset:0}}@-webkit-keyframes fillopacity{0%,70%{fill-opacity:0;stroke-width:4%}100%{fill-opacity:1;stroke-width:0}}@keyframes fillopacity{0%,70%{fill-opacity:0;stroke-width:4%}100%{fill-opacity:1;stroke-width:0}}</style></defs>
  <g id="taiwan-new-dollar-symbol" transform="translate(-15.236)">
    <path id="Path_24" data-name="Path 24" d="M27.988,20.391A20.391,20.391,0,0,1,48.378,0H308.354a20.39,20.39,0,0,1,0,40.781H48.378A20.391,20.391,0,0,1,27.988,20.391ZM334.066,281.084a20.408,20.408,0,0,0-28.823-.936c-27.56,25.816-39.975,28.723-43.115,29-1.16-2.13-2.2-7.07-2.2-10.941V117.245H308.35a20.39,20.39,0,0,0,0-40.781H48.373a20.39,20.39,0,0,0,0,40.781h64.113C120.845,264.1,34.555,290.094,30.425,291.239a20.4,20.4,0,0,0,5.19,40.114,20.184,20.184,0,0,0,5.068-.648c5.065-1.294,121.9-33.442,112.619-213.46h65.84v180.6c-.07,3.773.1,37.215,26.115,48.755A39.682,39.682,0,0,0,261.531,350c25.393,0,52.26-21.983,71.584-40.093A20.387,20.387,0,0,0,334.066,281.084Z" transform="translate(0)" fill="#eee8aa" style="stroke-dasharray: 2393.67; stroke-dashoffset: 2393.67; animation-delay: 0s; animation-duration: 1.47s;"></path>
  </g>
</svg>