<svg xmlns="http://www.w3.org/2000/svg" width="255.212" height="350" viewBox="0 0 255.212 350" class="animate-svg"><defs><style>.animate-svg path{-webkit-animation:draw ease-in-out forwards;animation:draw ease-in-out forwards;stroke:#eee8aa}.animate-svg{-webkit-animation:fillopacity 3 ease-in-out forwards;animation:fillopacity 2s ease-in-out forwards}@-webkit-keyframes draw{100%{stroke-dashoffset:0}}@keyframes draw{100%{stroke-dashoffset:0}}@-webkit-keyframes fillopacity{0%,70%{fill-opacity:0;stroke-width:4%}100%{fill-opacity:1;stroke-width:0}}@keyframes fillopacity{0%,70%{fill-opacity:0;stroke-width:4%}100%{fill-opacity:1;stroke-width:0}}</style></defs>
  <g id="yen-currency-symbol" transform="translate(-63.807 0)">
    <path id="Path_26" data-name="Path 26" d="M319.019,222.237A13.315,13.315,0,0,1,305.7,235.552H215.187V329.08a20.923,20.923,0,0,1-41.846,0V235.552H77.118a13.316,13.316,0,0,1,0-26.632h96.217V171.9l-.755-1.027H77.118a13.314,13.314,0,0,1,0-26.628h75.717L70.62,33.389A20.925,20.925,0,1,1,104.235,8.461l89.519,120.716L278.307,9.486a20.924,20.924,0,0,1,34.179,24.148L234.338,144.251H305.7a13.314,13.314,0,1,1,0,26.628H215.529l-.342.483v37.555H305.7A13.324,13.324,0,0,1,319.019,222.237Z" fill="#eee8aa" style="stroke-dasharray: 1904.76; stroke-dashoffset: 1904.76; animation-delay: 0s; animation-duration: 1.47s;"></path>
  </g>
</svg>