<svg xmlns="http://www.w3.org/2000/svg" width="359.85" height="350" viewBox="0 0 359.85 350" class="animate-svg"><defs><style>.animate-svg path{-webkit-animation:draw ease-in-out forwards;animation:draw ease-in-out forwards;stroke:#eee8aa}.animate-svg{-webkit-animation:fillopacity 3 ease-in-out forwards;animation:fillopacity 2s ease-in-out forwards}@-webkit-keyframes draw{100%{stroke-dashoffset:0}}@keyframes draw{100%{stroke-dashoffset:0}}@-webkit-keyframes fillopacity{0%,70%{fill-opacity:0;stroke-width:4%}100%{fill-opacity:1;stroke-width:0}}@keyframes fillopacity{0%,70%{fill-opacity:0;stroke-width:4%}100%{fill-opacity:1;stroke-width:0}}</style></defs>
  <g id="poland-zloty-currency-symbol" transform="translate(0 -6.229)">
    <g id="Group_2" data-name="Group 2" transform="translate(0 6.229)">
      <path id="Path_30" data-name="Path 30" d="M193.145,340.651H69.044c8.521-9.842,16.177-19.594,22.762-28.155L195.494,177.753a5.379,5.379,0,0,0,1.108-3.274V148.2a5.366,5.366,0,0,0-5.37-5.369H14.911A5.363,5.363,0,0,0,9.546,148.2v33.447a5.362,5.362,0,0,0,5.365,5.369H129.6c-7.722,8.949-14.944,17.685-23.857,28.629L1.11,351.823A5.393,5.393,0,0,0,0,355.1v24.369a5.362,5.362,0,0,0,5.364,5.37H193.149a5.367,5.367,0,0,0,5.374-5.37V346.019A5.374,5.374,0,0,0,193.145,340.651Z" transform="translate(0 -34.837)" fill="#f2eec1" style="stroke-dasharray: 1193.33; stroke-dashoffset: 1193.33; animation-delay: 0s; animation-duration: 1.76686s;"></path>
      <path id="Path_31" data-name="Path 31" d="M405.766,105.613a14.374,14.374,0,0,0-20.1-2.888l-35.874,26.869V11.6a5.369,5.369,0,0,0-5.37-5.37H302.369A5.367,5.367,0,0,0,297,11.6V169.138l-58.313,43.67a14.355,14.355,0,1,0,17.219,22.972L297,205v145.85a5.365,5.365,0,0,0,5.365,5.365h42.055a5.366,5.366,0,0,0,5.37-5.365V165.473l53.089-39.764A14.351,14.351,0,0,0,405.766,105.613Z" transform="translate(-48.785 -6.229)" fill="#eee8aa" style="stroke-dasharray: 1050.4; stroke-dashoffset: 1050.4; animation-delay: 0.5s; animation-duration: 1.47s;"></path>
    </g>
  </g>
</svg>