<svg xmlns="http://www.w3.org/2000/svg" width="286.563" height="350" viewBox="0 0 286.563 350" class="animate-svg"><defs><style>.animate-svg path{-webkit-animation:draw ease-in-out forwards;animation:draw ease-in-out forwards;stroke:#eee8aa}.animate-svg{-webkit-animation:fillopacity 3 ease-in-out forwards;animation:fillopacity 2s ease-in-out forwards}@-webkit-keyframes draw{100%{stroke-dashoffset:0}}@keyframes draw{100%{stroke-dashoffset:0}}@-webkit-keyframes fillopacity{0%,70%{fill-opacity:0;stroke-width:4%}100%{fill-opacity:1;stroke-width:0}}@keyframes fillopacity{0%,70%{fill-opacity:0;stroke-width:4%}100%{fill-opacity:1;stroke-width:0}}</style></defs>
  <g id="pound-symbol-variant" transform="translate(-6.766)">
    <g id="Group_1" data-name="Group 1" transform="translate(6.766)">
      <path id="Path_29" data-name="Path 29" d="M270.055,293.659l.009.028-2.452.539a12.01,12.01,0,0,0-3.4,1l-1.031.384a111.921,111.921,0,0,1-50.849,12.506c-3.15,0-9.061-.834-17.569-2.48-8.494-1.458-17.737-3.094-27.632-4.88q-14.815-2.679-29.095-5.128a139.594,139.594,0,0,0-22.692-2.447c-4,0-8.058.192-12.061.572l-17.09,1.631L97.872,282.8c1.172-1.256,2.278-2.508,3.342-3.75a95.365,95.365,0,0,0,12.9-19.233,83.143,83.143,0,0,0,7.223-21.787,143.4,143.4,0,0,0,2.227-26.259,54.892,54.892,0,0,0-1.528-12.914l-1.95-8.067,65.291-.127a9.02,9.02,0,0,0,3.122-.811,16.741,16.741,0,0,0-1.842-32.507,8.649,8.649,0,0,0-1.636-.211l-.075,0c-.2,0-.361-.009-.487-.019l-.848.061H112.018l-1.434-4.589c-7.514-24.108-11.315-44.47-11.315-60.534a59.061,59.061,0,0,1,4.364-22.5,60.534,60.534,0,0,1,11.986-18.7,54.087,54.087,0,0,1,18.473-12.647,62.157,62.157,0,0,1,24.286-4.589c36.239,0,55.41,17.222,58.607,52.649a6.1,6.1,0,0,1,.136.6l.127,1.6-.047.333a13.215,13.215,0,0,0,.666,3.145c1.692,11.264,10.809,19.172,21.759,19.172a22.022,22.022,0,0,0,21.862-19.654h-.009l.131-3.023c0-.047-.042-.412-.061-.82l-.009-.483c-1.275-14.062-4.678-26.732-10.078-37.56A84.64,84.64,0,0,0,230.231,22.35,90.029,90.029,0,0,0,199.106,5.672,132.073,132.073,0,0,0,159.488,0c-15.511,0-29.845,2.245-42.609,6.675A96.427,96.427,0,0,0,83.856,25.687,84.943,84.943,0,0,0,62.4,56.034c-5.091,11.962-7.673,25.5-7.673,40.26a143.548,143.548,0,0,0,2.789,25.476c1.453,7.88,3.67,16.978,6.6,27.051l2.428,8.367-37.223-.08a16.761,16.761,0,0,0-.155,33.365l1.6.291,45.435.038,1.125,5.142a113.682,113.682,0,0,1,2.6,24.084,134.559,134.559,0,0,1-3.356,31.612,88.289,88.289,0,0,1-9.609,24.253A74.66,74.66,0,0,1,51.63,294.24a106.331,106.331,0,0,1-20.662,13.851c-12.422,4.13-26.292,11.611-23.939,24.7,1.922,10.692,12.1,18.473,22.959,17.034a1.623,1.623,0,0,0,.623-.2c30.351-13.837,57.913-20.817,82.063-20.817a74.514,74.514,0,0,1,12.98,1.566c5.494,1.041,11.573,2.316,18.07,3.806q9.808,2.215,20.287,4.9t20.175,4.9q9.7,2.229,17.719,3.909a65.432,65.432,0,0,0,12.656,1.659h.956c24.393,0,50.292-10.2,51.388-10.636,2.391-1.041,9.7-3.755,9.7-3.755a21.034,21.034,0,0,0-6.553-41.5Z" transform="translate(-6.766)" fill="#eee8aa" style="stroke-dasharray: 1843.57; stroke-dashoffset: 1843.57; animation-delay: 0s; animation-duration: 1.47s;"></path>
    </g>
  </g>
</svg>