<svg xmlns="http://www.w3.org/2000/svg" width="249.955" height="350" viewBox="0 0 249.955 350">
  <g id="ukraine-hryvna" transform="translate(-60.564 0)">
    <path id="Path_25" data-name="Path 25" d="M293.022,196.189H186.685c10.7-8.24,21.788-15.827,31.336-23.143,2.368-1.809,4.672-3.669,6.947-5.544h68.054a17.5,17.5,0,1,0,0-34.993H257.315a110.18,110.18,0,0,0,12.078-24.276c7.87-22.752,3.945-48.951-9.217-68.862C226.985-10.848,158.791-7.135,111.3,17.811c-19.981,10.5-2.294,40.7,17.663,30.219,23.571-12.382,49.74-17.972,75.516-9.5,17.634,5.8,32.279,21.8,33.807,40.623,1.724,21.331-11.195,39.221-26.1,53.364H78.061a17.5,17.5,0,1,0,0,34.993h89.173A285.442,285.442,0,0,0,143.6,186.591a112.914,112.914,0,0,0-9.246,9.607h-56.3a17.5,17.5,0,0,0,0,34.995h35.884c-11.371,31.581-7.789,67.434,17.8,93.83,35.394,36.517,96.108,27.563,137.2,7.542,20.288-9.886,2.538-40.056-17.663-30.219-31.811,15.505-90.115,23.819-105.218-18.766-7.26-20.474-3.449-37.565,5.938-52.383H293.021a17.5,17.5,0,0,0,0-35.009Z" transform="translate(0 0)" fill="#eee8aa"/>
  </g>
</svg>
