<svg xmlns="http://www.w3.org/2000/svg" width="189.91" height="350" viewBox="0 0 189.91 350">
  <g id="dollar-currency-sign-1" transform="translate(-19.538)">
    <path id="Path_27" data-name="Path 27" d="M180.712,172.751c-11.627-9.267-28.781-18.268-52.441-27.519-25.774-10.021-36.258-16.183-40.523-19.6-5.035-4.023-7.379-9.3-7.379-16.58,0-5.207,0-21.058,41.547-21.058,22.3,0,42.538,3.605,60.155,10.713A7.627,7.627,0,0,0,192.38,93.23L200.32,56.1a7.628,7.628,0,0,0-5.367-8.927c-14.54-4.154-33.337-6.674-55.964-7.51V8.235A7.61,7.61,0,0,0,131.405,0H105.279a7.624,7.624,0,0,0-7.6,8.247l.217,33.14C75,44.882,57.337,53.424,45.308,66.821c-13.188,14.7-19.878,31.923-19.878,51.2,0,22.32,9.579,41.3,28.519,56.443,11.09,8.731,28.383,17.719,52.883,27.482,18.67,7.37,31.554,13.8,38.29,19.124,7,5.531,10.41,11.951,10.41,19.624,0,14.311-16.646,21.57-49.483,21.57a189.213,189.213,0,0,1-68.206-12.295,7.631,7.631,0,0,0-10.2,5.543L19.7,293.155a7.629,7.629,0,0,0,5.752,9.005,350.261,350.261,0,0,0,71.967,8.579l.135,31.182a7.419,7.419,0,0,0,1.762,5.682,7.618,7.618,0,0,0,5.551,2.4H131.5a7.621,7.621,0,0,0,7.624-7.624,7.52,7.52,0,0,0-.193-1.7l.1-32.48c46.111-8.12,70.418-35.508,70.418-79.529C209.456,206.854,199.783,188.049,180.712,172.751Z" fill="#eee8aa"/>
  </g>
</svg>
