<svg xmlns="http://www.w3.org/2000/svg" width="431.577" height="350" viewBox="0 0 431.577 350">
  <g id="israel-shekel-currency-symbol" transform="translate(0 -7.458)">
    <path id="Path_32" data-name="Path 32" d="M177.74,56.677H49.334l-.115,276.172a24.609,24.609,0,0,1-49.219,0L.137,32.04A24.641,24.641,0,0,1,24.746,7.458h153c73.883,0,133.984,60.107,133.984,133.984V267.224a24.609,24.609,0,0,1-49.219,0V141.442A84.871,84.871,0,0,0,177.74,56.677ZM406.968,7.458a24.639,24.639,0,0,0-24.609,24.609l-.115,276.172H253.837a84.86,84.86,0,0,1-84.766-84.766V97.692a24.609,24.609,0,0,0-49.219,0V223.474c0,73.877,60.1,133.984,133.984,133.984h153a24.637,24.637,0,0,0,24.609-24.582l.131-300.809A24.643,24.643,0,0,0,406.968,7.458Z" transform="translate(0 0)" fill="#eee8aa"/>
  </g>
</svg>
