<svg xmlns="http://www.w3.org/2000/svg" width="290.095" height="350" viewBox="0 0 290.095 350">
  <g id="mongolia-tughrik-currency-symbol" transform="translate(-6.172)">
    <path id="Path_20" data-name="Path 20" d="M289.492,6.425C284.785,2.16,277.011,0,266.387,0H35.571C25.516,0,17.936,2.126,13.044,6.323,8.424,10.283,6.172,15.68,6.172,22.8c0,6.881,2.174,12.191,6.653,16.248,4.625,4.178,12.273,6.3,22.746,6.3h86.5v97.933L44.714,188.63a15.326,15.326,0,1,0,15.5,26.444l61.856-36.266v48.418L44.714,272.571a15.322,15.322,0,1,0,15.5,26.434l61.856-36.256v50.277c0,12.865,2.766,22.4,8.221,28.312,5.372,5.828,12.22,8.663,20.931,8.663,8.536,0,15.267-2.8,20.567-8.546,5.372-5.824,8.095-15.4,8.095-28.429V228.846l77.841-45.627a15.322,15.322,0,1,0-15.5-26.434l-62.341,36.538V144.914l77.841-45.627a15.326,15.326,0,1,0-15.5-26.444l-62.341,36.543V45.341h86.5c10.507,0,18.267-2.14,23.061-6.372,4.591-4.047,6.823-9.337,6.823-16.18C296.272,15.923,294.054,10.565,289.492,6.425Z" transform="translate(0 0)" fill="#eee8aa"/>
  </g>
</svg>
