<svg xmlns="http://www.w3.org/2000/svg" width="534.67" height="350" viewBox="0 0 534.67 350">
  <g id="north-korea-won" transform="translate(0 -96.844)">
    <path id="Path_21" data-name="Path 21" d="M523.7,271.536h-76l10.844-43.873H523.7a10.967,10.967,0,0,0,0-21.934H463.977l13.227-53.5c3.364-13.794,5.071-23.822,5.071-29.789a23.857,23.857,0,0,0-7.6-18.222,26.263,26.263,0,0,0-18.947-7.366c-7.394,0-12.929,1.767-16.473,5.241a33.5,33.5,0,0,0-8.622,13.59,239.134,239.134,0,0,0-6.16,24.45l-14.709,65.592H327.279L313.19,153.716c-4.243-15.552-7.652-26.812-10.121-33.458-2.153-5.782-6.16-11.282-11.92-16.349-5.325-4.68-13.22-7.058-23.453-7.058-10.18,0-18.176,2.31-23.776,6.861a42.115,42.115,0,0,0-12.851,17.146c-2.914,7.38-6.3,18.414-10.051,32.8l-13.971,52.065H124.914L110.228,140.23c-3.226-15.194-6.954-26.772-11.1-34.487-1.19-2.2-4.8-8.9-20.176-8.9-7.665,0-13.883,2.428-19,7.422A24.168,24.168,0,0,0,52.4,122.433c0,6.6,1.7,16.6,5.061,29.73L70.7,205.712H10.967a10.967,10.967,0,0,0,0,21.934H76.125l10.844,43.868h-76a10.967,10.967,0,0,0,0,21.934H92.393l23.6,95.478q2.616,10.464,5.957,22.757a80.827,80.827,0,0,0,7.935,19.679,30.777,30.777,0,0,0,11.334,11.469c4.6,2.659,10.769,4.012,18.316,4.012,9.31,0,16.431-2.193,21.773-6.685a39.141,39.141,0,0,0,11.815-15.92c2.556-6.74,6.081-18.124,10.479-33.841l26.471-96.955h74.846l26.161,97.017c4.554,16.151,8.121,27.705,10.589,34.27,2.125,5.647,6.048,10.866,11.649,15.51,5.286,4.379,12.629,6.605,21.822,6.605,9.75,0,17.234-2.26,22.237-6.685a40.453,40.453,0,0,0,11.541-16.748c2.548-7.2,5.839-18.812,9.76-34.5l23.6-95.467H523.7a10.953,10.953,0,1,0,0-21.906Zm-118.86-43.867L395,271.536H345.112l-11.886-43.867Zm-137.1-72.119,13.527,50.179H254.033ZM129.832,227.669h71.316l-11.77,43.867H139.672ZM162.3,372.413l-17.71-78.943h38.9Zm73.764-100.877,11.976-43.873h39.132l11.835,43.873ZM372.405,372.279l-21.353-78.808h39.032Z" transform="translate(0 0)" fill="#eee8aa"/>
  </g>
</svg>
