<svg xmlns="http://www.w3.org/2000/svg" width="367.647" height="350" viewBox="0 0 367.647 350">
  <g id="philippines-peso-currency-symbol" transform="translate(0 -9.976)">
    <path id="Path_22" data-name="Path 22" d="M356.93,131.2H304.886a143.36,143.36,0,0,0,1.464-20.126,135.159,135.159,0,0,0-.988-15.567h51.562a10.707,10.707,0,1,0,0-21.415H300.818c-.737-2.269-1.427-4.567-2.305-6.734a85.792,85.792,0,0,0-22.654-32.343c-9.9-8.77-19.167-15.141-32.823-18.932-14.17-4.054-32.155-6.1-58.8-6.1H92.068c-14.325,0-24.728,2.933-30.928,8.721-6.11,5.691-9.191,15.769-9.191,29.961V74.089H10.707a10.707,10.707,0,1,0,0,21.414H51.949V131.2H10.707a10.707,10.707,0,1,0,0,21.415H51.949V322.024c0,12.768,2.873,22.42,8.543,28.7,5.595,6.221,12.838,9.249,22.15,9.249,8.812,0,15.917-3.069,21.687-9.384,5.814-6.358,8.766-16.146,8.766-29.049V215.784h71.148c42.533,0,69.48-8.972,90.654-26.68,11.408-9.552,19.623-21.81,24.845-36.486h57.2a10.711,10.711,0,1,0-.011-21.421ZM113.09,53.224h53.736c33.9,0,55.954,5.67,67.435,17.324,1.067,1.139,2.04,2.334,3,3.539H113.09Zm97.791,113.52c-11.837,3.691-26.654,5.563-44.054,5.563H113.09v-19.7H234.974A57.485,57.485,0,0,1,210.881,166.745ZM247.249,131.2H113.09V95.5H247.6a74.786,74.786,0,0,1-.356,35.694Z" fill="#eee8aa"/>
  </g>
</svg>
