<svg id="Layer_1" data-name="Layer 1" xmlns="http://www.w3.org/2000/svg" viewBox="0 0 59.03 57.86"><defs><style>.cls-1{fill:#eee8aa;}</style></defs><title>e_logo</title><path class="cls-1" d="M50.74,9.21a29.11,29.11,0,0,0-21.16-9A27.56,27.56,0,0,0,9.16,8.77,28.37,28.37,0,0,0,.77,29.41,27.19,27.19,0,0,0,9.42,49.72a28.81,28.81,0,0,0,20.75,8.36A29.29,29.29,0,0,0,41.54,56a28,28,0,0,0,8.37-5.6,1.42,1.42,0,0,0,0-2l-6.36-6.58a1.42,1.42,0,0,0-2,0,14.33,14.33,0,0,1-4.52,2.85,18.48,18.48,0,0,1-6.89,1.28A17.34,17.34,0,0,1,19,42.17a16.23,16.23,0,0,1-6.09-11.44A15.36,15.36,0,0,1,12.87,29,15.77,15.77,0,0,1,18,17.27a16.65,16.65,0,0,1,12-4.95,17.7,17.7,0,0,1,10.74,3.3A15.78,15.78,0,0,1,46,22.3a1.78,1.78,0,0,1-1.62,2.49l-8.68.14a.65.65,0,0,1-.66-.65V22.63a1,1,0,0,0-1.44-.86L19,29.5l14.56,7.74A1,1,0,0,0,35,36.37V34.71a.65.65,0,0,1,.66-.65L58,34.32a1.76,1.76,0,0,0,1.73-1.42v0a1.84,1.84,0,0,0,0-.35V30.14Q59.8,18.19,50.74,9.21Z" transform="translate(-0.77 -0.22)"/></svg>