<svg id="Layer_1" data-name="Layer 1" xmlns="http://www.w3.org/2000/svg" viewBox="0 0 380.99 74.27"><defs><style>.cls-1{fill:#eee8aa;}</style></defs><title>logo</title><path class="cls-1" d="M40.32,73.87a11.63,11.63,0,0,1-1.91.15H36.8A35.86,35.86,0,0,1,10.88,63.22a34.88,34.88,0,0,1-11-25.82,35.26,35.26,0,0,1,11.07-26Q22,.47,36.87.47H40V14.4a19.79,19.79,0,0,0-2.93-.22A22.87,22.87,0,0,0,20.67,21a21.88,21.88,0,0,0-7,16.28,22.36,22.36,0,0,0,7,16.43,22.71,22.71,0,0,0,16.5,7,16.8,16.8,0,0,0,3.15-.29Z" transform="translate(0.16 -0.47)"/><path class="cls-1" d="M164.09,22.83q5.81,6.43,5.81,18.05V73.73H155.63V42.52q0-6.73-3.47-10.46t-9.49-3.72a12.69,12.69,0,0,0-9.79,4q-3.67,4-3.67,11.42v30H114.83V17.22h14.38V28.54a18,18,0,0,1,7.4-8.92,22,22,0,0,1,11.88-3.21Q158.28,16.4,164.09,22.83Z" transform="translate(0.16 -0.47)"/><path class="cls-1" d="M179.84,16.67h15.11L209.47,45l15-28.31h14.89L209.32,74.74Z" transform="translate(0.16 -0.47)"/><path class="cls-1" d="M336.49,19.51a22.22,22.22,0,0,1,11.63-3.11v15.4h-4.18q-15.81,0-15.81,14.69V73.73H313.75V17.22h14.38V28A23.64,23.64,0,0,1,336.49,19.51Z" transform="translate(0.16 -0.47)"/><path class="cls-1" d="M356.63.47h12.32V15.21h8.51V28.11h-8.51v24.4a8,8,0,0,0,.7,3.45,11.08,11.08,0,0,0,2.24,3,9.42,9.42,0,0,0,6.89,2.94h2.05v12h-2a20.66,20.66,0,0,1-6.45-1,33.7,33.7,0,0,1-8.58-4.48,15.67,15.67,0,0,1-4.91-6.17,21.12,21.12,0,0,1-2.27-9.41Z" transform="translate(0.16 -0.47)"/><path class="cls-1" d="M87.68,19.41a29.11,29.11,0,0,0-23-1.21,27.56,27.56,0,0,0-16.27,15,28.37,28.37,0,0,0-.83,22.27A27.19,27.19,0,0,0,62.71,71.61a28.81,28.81,0,0,0,22.36.76,29.29,29.29,0,0,0,10-5.82A28,28,0,0,0,101,58.42a1.42,1.42,0,0,0-.66-1.91l-8.22-4a1.42,1.42,0,0,0-1.89.63,14.33,14.33,0,0,1-3.28,4.22,18.48,18.48,0,0,1-6,3.56,17.34,17.34,0,0,1-11.75.3,16.23,16.23,0,0,1-9.63-8.67,15.36,15.36,0,0,1-.67-1.63,15.77,15.77,0,0,1,.79-12.73,16.65,16.65,0,0,1,9.57-8.75,17.7,17.7,0,0,1,11.22-.57,15.78,15.78,0,0,1,7.23,4.48A1.78,1.78,0,0,1,87,36.24l-8.11,3.1a.65.65,0,0,1-.85-.39l-.56-1.55a1,1,0,0,0-1.64-.32l-11,12.25,16.33,2.29a1,1,0,0,0,1.05-1.3l-.57-1.56a.65.65,0,0,1,.4-.84l21.11-7.4a1.76,1.76,0,0,0,1.14-1.92v0a1.84,1.84,0,0,0-.09-.34L103.35,36Q99.27,24.75,87.68,19.41Z" transform="translate(0.16 -0.47)"/><path class="cls-1" d="M286.69,19.41a29.11,29.11,0,0,0-23-1.21,27.56,27.56,0,0,0-16.27,15,28.37,28.37,0,0,0-.83,22.27,27.19,27.19,0,0,0,15.08,16.13,28.81,28.81,0,0,0,22.36.76,29.29,29.29,0,0,0,10-5.82A28,28,0,0,0,300,58.43a1.42,1.42,0,0,0-.66-1.91l-8.22-4a1.42,1.42,0,0,0-1.89.63,14.33,14.33,0,0,1-3.28,4.22,18.48,18.48,0,0,1-6,3.56,17.34,17.34,0,0,1-11.75.3,16.23,16.23,0,0,1-9.63-8.67,15.36,15.36,0,0,1-.67-1.63,15.77,15.77,0,0,1,.79-12.73,16.65,16.65,0,0,1,9.57-8.75,17.7,17.7,0,0,1,11.22-.57,15.78,15.78,0,0,1,7.23,4.48,1.78,1.78,0,0,1-.67,2.89l-8.11,3.1A.65.65,0,0,1,277,39l-.56-1.55a1,1,0,0,0-1.64-.32l-11,12.25,16.33,2.29a1,1,0,0,0,1.05-1.3l-.57-1.56a.65.65,0,0,1,.4-.84l21.11-7.4a1.76,1.76,0,0,0,1.14-1.92v0a1.84,1.84,0,0,0-.09-.34L302.36,36Q298.27,24.76,286.69,19.41Z" transform="translate(0.16 -0.47)"/></svg>