<svg id="Layer_1" data-name="Layer 1" xmlns="http://www.w3.org/2000/svg" viewBox="0 0 106.03 57.86"><defs><style>.cls-1{fill:#2a2a2a;}</style></defs><title>minimal_logo</title><path class="cls-1" d="M97.46,9.05A29.11,29.11,0,0,0,76.3.07,27.56,27.56,0,0,0,55.88,8.61a31.8,31.8,0,0,0-2.37,2.71,31.26,31.26,0,0,0-2.64-2.9A28.81,28.81,0,0,0,30.11.07,29.29,29.29,0,0,0,18.74,2.12a28,28,0,0,0-8.37,5.6,1.42,1.42,0,0,0,0,2l6.36,6.58a1.42,1.42,0,0,0,2,0,14.33,14.33,0,0,1,4.52-2.85,18.48,18.48,0,0,1,6.89-1.28A17.34,17.34,0,0,1,41.26,16a16.23,16.23,0,0,1,6.09,11.44,15.36,15.36,0,0,1,.07,1.76,15.77,15.77,0,0,1-5.1,11.7,16.65,16.65,0,0,1-12,4.95,17.7,17.7,0,0,1-10.74-3.3,15.78,15.78,0,0,1-5.26-6.68,1.78,1.78,0,0,1,1.62-2.49l8.68-.14a.65.65,0,0,1,.66.65v1.65a1,1,0,0,0,1.44.86l14.56-7.74L26.72,20.91a1,1,0,0,0-1.44.86v1.67a.65.65,0,0,1-.66.65L2.25,23.83A1.76,1.76,0,0,0,.52,25.25v0a1.83,1.83,0,0,0,0,.35V28q0,12,9.06,20.94a29.11,29.11,0,0,0,21.16,9,27.56,27.56,0,0,0,20.42-8.54,31.8,31.8,0,0,0,2.37-2.71,31.26,31.26,0,0,0,2.64,2.9,28.81,28.81,0,0,0,20.75,8.36,29.29,29.29,0,0,0,11.37-2.05,28,28,0,0,0,8.37-5.6,1.42,1.42,0,0,0,0-2L90.3,41.68a1.42,1.42,0,0,0-2,0,14.33,14.33,0,0,1-4.52,2.85,18.48,18.48,0,0,1-6.89,1.28A17.34,17.34,0,0,1,65.74,42a16.23,16.23,0,0,1-6.09-11.44,15.36,15.36,0,0,1-.07-1.76,15.77,15.77,0,0,1,5.1-11.7,16.65,16.65,0,0,1,12-4.95,17.7,17.7,0,0,1,10.74,3.3,15.78,15.78,0,0,1,5.26,6.68,1.78,1.78,0,0,1-1.62,2.49l-8.68.14a.65.65,0,0,1-.66-.65V22.47a1,1,0,0,0-1.44-.86L65.72,29.35l14.56,7.74a1,1,0,0,0,1.44-.86V34.56a.65.65,0,0,1,.66-.65l22.37.27a1.76,1.76,0,0,0,1.73-1.42v0a1.83,1.83,0,0,0,0-.35V30Q106.52,18,97.46,9.05Z" transform="translate(-0.48 -0.07)"/></svg>